<svg height="1598" width="720" xmlns="http://www.w3.org/2000/svg">
<rect height="1598" fill="#555" width="720"></rect>
<text fill="#7f7" font-family="Courier New" font-size="12" xml:space="preserve">
<tspan x="10" y="26">27 megabytes installed</tspan>
<tspan x="10" y="42"></tspan>
<tspan x="10" y="58">node_modules</tspan>
<tspan x="10" y="74">└─┬ shipit@1.0.2 </tspan>
<tspan x="10" y="90">  ├── async@0.2.10 </tspan>
<tspan x="10" y="106">  ├── change-case@1.0.6 </tspan>
<tspan x="10" y="122">  ├─┬ cheerio@0.13.1 </tspan>
<tspan x="10" y="138">  │ ├─┬ CSSselect@0.4.1 </tspan>
<tspan x="10" y="154">  │ │ ├── CSSwhat@0.4.7 </tspan>
<tspan x="10" y="170">  │ │ └── domutils@1.4.3 </tspan>
<tspan x="10" y="186">  │ ├── entities@0.5.0 </tspan>
<tspan x="10" y="202">  │ └─┬ htmlparser2@3.4.0 </tspan>
<tspan x="10" y="218">  │   ├── domelementtype@1.3.0 </tspan>
<tspan x="10" y="234">  │   ├── domhandler@2.2.1 </tspan>
<tspan x="10" y="250">  │   ├── domutils@1.3.0 </tspan>
<tspan x="10" y="266">  │   └─┬ readable-stream@1.1.14 </tspan>
<tspan x="10" y="282">  │     ├── core-util-is@1.0.2 </tspan>
<tspan x="10" y="298">  │     ├── inherits@2.0.3 </tspan>
<tspan x="10" y="314">  │     ├── isarray@0.0.1 </tspan>
<tspan x="10" y="330">  │     └── string_decoder@0.10.31 </tspan>
<tspan x="10" y="346">  ├─┬ grunt@0.4.5 </tspan>
<tspan x="10" y="362">  │ ├── async@0.1.22 </tspan>
<tspan x="10" y="378">  │ ├── coffee-script@1.3.3 </tspan>
<tspan x="10" y="394">  │ ├── colors@0.6.2 </tspan>
<tspan x="10" y="410">  │ ├── dateformat@1.0.2-1.2.3 </tspan>
<tspan x="10" y="426">  │ ├── eventemitter2@0.4.14 </tspan>
<tspan x="10" y="442">  │ ├── exit@0.1.2 </tspan>
<tspan x="10" y="458">  │ ├─┬ findup-sync@0.1.3 </tspan>
<tspan x="10" y="474">  │ │ ├─┬ glob@3.2.11 </tspan>
<tspan x="10" y="490">  │ │ │ └── minimatch@0.3.0 </tspan>
<tspan x="10" y="506">  │ │ └── lodash@2.4.2 </tspan>
<tspan x="10" y="522">  │ ├── getobject@0.1.0 </tspan>
<tspan x="10" y="538">  │ ├─┬ glob@3.1.21 </tspan>
<tspan x="10" y="554">  │ │ ├── graceful-fs@1.2.3 </tspan>
<tspan x="10" y="570">  │ │ └── inherits@1.0.2 </tspan>
<tspan x="10" y="586">  │ ├─┬ grunt-legacy-log@0.1.3 </tspan>
<tspan x="10" y="602">  │ │ ├─┬ grunt-legacy-log-utils@0.1.1 </tspan>
<tspan x="10" y="618">  │ │ │ ├── lodash@2.4.2 </tspan>
<tspan x="10" y="634">  │ │ │ └── underscore.string@2.3.3 </tspan>
<tspan x="10" y="650">  │ │ ├── lodash@2.4.2 </tspan>
<tspan x="10" y="666">  │ │ └── underscore.string@2.3.3 </tspan>
<tspan x="10" y="682">  │ ├─┬ grunt-legacy-util@0.2.0 </tspan>
<tspan x="10" y="698">  │ │ └── async@0.1.22 </tspan>
<tspan x="10" y="714">  │ ├── hooker@0.2.3 </tspan>
<tspan x="10" y="730">  │ ├── iconv-lite@0.2.11 </tspan>
<tspan x="10" y="746">  │ ├─┬ js-yaml@2.0.5 </tspan>
<tspan x="10" y="762">  │ │ ├─┬ argparse@0.1.16 </tspan>
<tspan x="10" y="778">  │ │ │ ├── underscore@1.7.0 </tspan>
<tspan x="10" y="794">  │ │ │ └── underscore.string@2.4.0 </tspan>
<tspan x="10" y="810">  │ │ └── esprima@1.0.4 </tspan>
<tspan x="10" y="826">  │ ├── lodash@0.9.2 </tspan>
<tspan x="10" y="842">  │ ├─┬ minimatch@0.2.14 </tspan>
<tspan x="10" y="858">  │ │ ├── lru-cache@2.7.3 </tspan>
<tspan x="10" y="874">  │ │ └── sigmund@1.0.1 </tspan>
<tspan x="10" y="890">  │ ├─┬ nopt@1.0.10 </tspan>
<tspan x="10" y="906">  │ │ └── abbrev@1.1.0 </tspan>
<tspan x="10" y="922">  │ ├── rimraf@2.2.8 </tspan>
<tspan x="10" y="938">  │ ├── underscore.string@2.2.1 </tspan>
<tspan x="10" y="954">  │ └── which@1.0.9 </tspan>
<tspan x="10" y="970">  ├─┬ grunt-contrib-coffee@0.10.1 </tspan>
<tspan x="10" y="986">  │ ├─┬ chalk@0.4.0 </tspan>
<tspan x="10" y="1002">  │ │ ├── ansi-styles@1.0.0 </tspan>
<tspan x="10" y="1018">  │ │ ├── has-color@0.1.7 </tspan>
<tspan x="10" y="1034">  │ │ └── strip-ansi@0.1.1 </tspan>
<tspan x="10" y="1050">  │ ├─┬ coffee-script@1.7.1 </tspan>
<tspan x="10" y="1066">  │ │ └── mkdirp@0.3.5 </tspan>
<tspan x="10" y="1082">  │ └── lodash@2.4.2 </tspan>
<tspan x="10" y="1098">  ├─┬ moment-timezone@0.4.1 </tspan>
<tspan x="10" y="1114">  │ └── moment@2.18.1 </tspan>
<tspan x="10" y="1130">  ├─┬ request@2.33.0 </tspan>
<tspan x="10" y="1146">  │ ├── aws-sign2@0.5.0 </tspan>
<tspan x="10" y="1162">  │ ├── forever-agent@0.5.2 </tspan>
<tspan x="10" y="1178">  │ ├─┬ form-data@0.1.4 </tspan>
<tspan x="10" y="1194">  │ │ ├── async@0.9.2 </tspan>
<tspan x="10" y="1210">  │ │ └─┬ combined-stream@0.0.7 </tspan>
<tspan x="10" y="1226">  │ │   └── delayed-stream@0.0.5 </tspan>
<tspan x="10" y="1242">  │ ├─┬ hawk@1.0.0 </tspan>
<tspan x="10" y="1258">  │ │ ├── boom@0.4.2 </tspan>
<tspan x="10" y="1274">  │ │ ├── cryptiles@0.2.2 </tspan>
<tspan x="10" y="1290">  │ │ ├── hoek@0.9.1 </tspan>
<tspan x="10" y="1306">  │ │ └── sntp@0.2.4 </tspan>
<tspan x="10" y="1322">  │ ├─┬ http-signature@0.10.1 </tspan>
<tspan x="10" y="1338">  │ │ ├── asn1@0.1.11 </tspan>
<tspan x="10" y="1354">  │ │ ├── assert-plus@0.1.5 </tspan>
<tspan x="10" y="1370">  │ │ └── ctype@0.5.3 </tspan>
<tspan x="10" y="1386">  │ ├── json-stringify-safe@5.0.1 </tspan>
<tspan x="10" y="1402">  │ ├── mime@1.2.11 </tspan>
<tspan x="10" y="1418">  │ ├── node-uuid@1.4.8 </tspan>
<tspan x="10" y="1434">  │ ├── oauth-sign@0.3.0 </tspan>
<tspan x="10" y="1450">  │ ├── qs@0.6.6 </tspan>
<tspan x="10" y="1466">  │ ├─┬ tough-cookie@2.3.2 </tspan>
<tspan x="10" y="1482">  │ │ └── punycode@1.4.1 </tspan>
<tspan x="10" y="1498">  │ └── tunnel-agent@0.3.0 </tspan>
<tspan x="10" y="1514">  ├── underscore@1.5.2 </tspan>
<tspan x="10" y="1530">  └─┬ xml2js@0.4.17 </tspan>
<tspan x="10" y="1546">    ├── sax@1.2.2 </tspan>
<tspan x="10" y="1562">    └─┬ xmlbuilder@4.2.1 </tspan>
<tspan x="10" y="1578">      └── lodash@4.17.4</tspan>
</text>
</svg>
